<svg width="14" height="20" viewBox="0 0 14 20" fill="none" xmlns="http://www.w3.org/2000/svg">
<path fill-rule="evenodd" clip-rule="evenodd" d="M2.62681 0.00244503C3.54347 -0.0315637 4.30806 0.289207 4.92049 0.964751C5.51237 1.67906 5.71828 2.49374 5.53834 3.40879C5.35069 4.19394 4.9142 4.79632 4.22883 5.21585C4.00111 5.35101 3.75873 5.4503 3.50164 5.51384C3.50071 7.63528 3.50164 9.75673 3.50437 11.8782C3.83095 11.6616 4.18001 11.4875 4.55143 11.356C4.94346 11.2168 5.34259 11.102 5.74884 11.0116C6.22742 10.906 6.70672 10.8039 7.18683 10.7054C7.55896 10.6278 7.9271 10.5349 8.2913 10.4265C8.66933 10.3168 9.02834 10.1637 9.36842 9.96724C9.70649 9.76767 9.97533 9.49882 10.1749 9.16076C10.3191 8.8923 10.4129 8.60705 10.4565 8.30507C9.72169 8.09128 9.15945 7.65661 8.76972 7.00104C8.38501 6.30375 8.29939 5.57108 8.51274 4.80304C8.76698 3.99839 9.2746 3.41426 10.0355 3.05066C10.6056 2.79768 11.1961 2.73572 11.807 2.86476C12.5032 3.02929 13.0618 3.39836 13.4828 3.97196C13.9491 4.65186 14.1003 5.39726 13.9366 6.20823C13.749 6.99338 13.3125 7.59575 12.6271 8.01528C12.39 8.15296 12.1385 8.25597 11.8726 8.32421C11.827 8.73838 11.7239 9.13752 11.5637 9.52162C11.2677 10.1894 10.8112 10.7189 10.194 11.11C9.75389 11.3819 9.28554 11.5934 8.78885 11.7442C8.49644 11.8347 8.20119 11.9148 7.90309 11.9848C7.3846 12.1002 6.86517 12.2113 6.34481 12.3183C5.99292 12.3931 5.64479 12.4824 5.30049 12.5862C4.94373 12.6923 4.6084 12.8436 4.29445 13.0401C3.91166 13.2928 3.66928 13.6436 3.56725 14.0926C3.56905 14.0962 3.57091 14.0998 3.57272 14.1035C4.3144 14.3287 4.8767 14.777 5.25949 15.4486C5.62123 16.134 5.69777 16.8503 5.48913 17.5973C5.30142 18.2112 4.94876 18.7061 4.43114 19.0818C3.7198 19.5678 2.94339 19.7118 2.10192 19.5138C1.24634 19.2741 0.627584 18.7538 0.245653 17.9527C-0.0371452 17.2982 -0.0754187 16.6292 0.130832 15.9461C0.367729 15.2428 0.807875 14.7079 1.45127 14.3414C1.65756 14.2291 1.87447 14.1444 2.10192 14.0871C2.10192 11.2293 2.10192 8.37161 2.10192 5.51384C1.34738 5.30858 0.770574 4.87117 0.371409 4.2016C-0.0231535 3.48472 -0.103347 2.73383 0.130832 1.94893C0.407495 1.13644 0.93877 0.557778 1.72465 0.21295C2.01487 0.0949686 2.3156 0.0247968 2.62681 0.00244503ZM2.79084 1.40216C3.33498 1.42028 3.74599 1.66086 4.0238 2.12389C4.20483 2.46322 4.24491 2.81862 4.14409 3.19008C4.00964 3.61432 3.73899 3.91595 3.33214 4.09498C2.86679 4.27011 2.42577 4.2227 2.00897 3.95282C1.58249 3.63834 1.38292 3.2146 1.41026 2.68159C1.46614 2.19427 1.70398 1.82702 2.12379 1.57986C2.33233 1.46625 2.5547 1.40702 2.79084 1.40216ZM11.1892 4.2016C11.7333 4.2197 12.1443 4.46027 12.4221 4.92333C12.6031 5.26265 12.6432 5.61805 12.5424 5.98952C12.4079 6.41376 12.1373 6.71541 11.7304 6.89442C11.2651 7.06955 10.8241 7.02214 10.4073 6.75226C9.9808 6.43776 9.78123 6.01402 9.80857 5.48103C9.86445 4.9937 10.1023 4.62644 10.5221 4.3793C10.7306 4.26568 10.953 4.20647 11.1892 4.2016ZM2.79084 15.3993C3.33498 15.4174 3.74599 15.658 4.0238 16.1211C4.20483 16.4604 4.24491 16.8158 4.14409 17.1873C4.00964 17.6115 3.73899 17.9132 3.33214 18.0922C2.86679 18.2673 2.42577 18.2199 2.00897 17.95C1.58249 17.6355 1.38292 17.2118 1.41026 16.6788C1.46614 16.1914 1.70398 15.8242 2.12379 15.577C2.33233 15.4634 2.5547 15.4042 2.79084 15.3993Z" fill="#FEFFFE"/>
</svg>
