<svg width="38" height="23" viewBox="0 0 38 23" fill="none" xmlns="http://www.w3.org/2000/svg">
<path d="M37 11.6364C37 14.4246 35.1332 17.0679 31.8622 19.0518C28.6045 21.0276 24.0588 22.2727 19 22.2727C13.9412 22.2727 9.39548 21.0276 6.13779 19.0518C2.86675 17.0679 1 14.4246 1 11.6364C1 8.84815 2.86675 6.20489 6.13779 4.22095C9.39548 2.24511 13.9412 1 19 1C24.0588 1 28.6045 2.24511 31.8622 4.22095C35.1332 6.20489 37 8.84815 37 11.6364Z" stroke="white"/>
<path d="M7.54688 7.54492H9.23991L12.4741 13.0338H12.4958V7.54492H14.0912V15.7267H12.3873L9.16394 10.2493H9.14223V15.7267H7.54688V7.54492ZM15.5912 7.54492H21.3866V9.05753H17.2951V10.8108H21.0502V12.2088H17.2951V14.2141H21.4734V15.7267H15.5912V7.54492ZM30.0086 15.7267H28.3155L27.0023 10.1576H26.9806L25.6891 15.7267H23.9635L21.9123 7.54492H23.6162L24.8426 13.1141H24.8643L26.2101 7.54492H27.8054L29.1295 13.1828H29.1512L30.421 7.54492H32.0923L30.0086 15.7267Z" fill="white"/>
</svg>
