<svg width="19" height="19" viewBox="0 0 19 19" fill="none" xmlns="http://www.w3.org/2000/svg">
<path d="M7.625 10.1113C7.98288 10.5897 8.43946 10.9856 8.96379 11.2721C9.48812 11.5585 10.0679 11.7289 10.6639 11.7716C11.2598 11.8143 11.858 11.7283 12.4178 11.5195C12.9776 11.3106 13.4859 10.9839 13.9083 10.5613L16.4083 8.0613C17.1673 7.27546 17.5873 6.22295 17.5778 5.13046C17.5683 4.03797 17.1301 2.99292 16.3576 2.22039C15.585 1.44785 14.54 1.00965 13.4475 1.00016C12.355 0.990664 11.3025 1.41064 10.5167 2.16963L9.08333 3.59463" stroke="black" stroke-width="2" stroke-linecap="round" stroke-linejoin="round"/>
<path d="M10.953 8.44436C10.5951 7.96592 10.1385 7.57004 9.61417 7.28358C9.08985 6.99711 8.51004 6.82676 7.91409 6.78408C7.31814 6.7414 6.71998 6.82739 6.16018 7.03621C5.60038 7.24503 5.09204 7.5718 4.66963 7.99436L2.16963 10.4944C1.41064 11.2802 0.990664 12.3327 1.00016 13.4252C1.00965 14.5177 1.44785 15.5627 2.22039 16.3353C2.99292 17.1078 4.03797 17.546 5.13046 17.5555C6.22295 17.565 7.27546 17.145 8.0613 16.386L9.4863 14.961" stroke="black" stroke-width="2" stroke-linecap="round" stroke-linejoin="round"/>
</svg>
