<svg width="14" height="15" viewBox="0 0 14 15" fill="none" xmlns="http://www.w3.org/2000/svg">
<path d="M9.8933 0C8.76666 0 7.80097 0.402371 6.99623 1.20711L5.2258 2.97755C4.9039 3.29944 4.9039 3.78229 5.2258 4.10418C5.54769 4.42608 6.03054 4.42608 6.35244 4.10418L8.12287 2.33375C9.08856 1.36806 10.698 1.36806 11.6637 2.33375C12.1466 2.8166 12.388 3.46039 12.388 4.10418C12.388 4.74798 12.1466 5.39177 11.6637 5.87462L9.8933 7.64505C9.57141 7.96695 9.57141 8.44979 9.8933 8.77169C10.0543 8.93264 10.2957 9.01311 10.4566 9.01311C10.6176 9.01311 10.859 8.93264 11.0199 8.77169L12.7904 7.00126C13.5951 6.19651 13.9975 5.23082 13.9975 4.10418C13.9975 2.97755 13.5951 2.01186 12.7904 1.20711C11.9856 0.402371 11.0199 0 9.8933 0Z" fill="black"/>
<path d="M4.10418 6.43837C4.42608 6.11648 4.42608 5.63363 4.10418 5.31174C3.78229 4.98984 3.29944 4.98984 2.97755 5.31174L1.20711 7.00169C0.402371 7.80644 0 8.77213 0 9.89877C0 11.0254 0.402371 11.9911 1.20711 12.7958C2.01186 13.6006 2.97755 14.003 4.10418 14.003C5.23082 14.003 6.19651 13.6006 7.00126 12.7958L8.77169 11.0254C9.09359 10.7035 9.09359 10.2207 8.77169 9.89877C8.44979 9.57687 7.96695 9.57687 7.64505 9.89877L5.87462 11.6692C4.90893 12.6349 3.29944 12.6349 2.33375 11.6692C1.85091 11.1864 1.60948 10.5426 1.60948 9.89877C1.60948 9.25497 1.85091 8.61118 2.33375 8.12833L4.10418 6.43837Z" fill="black"/>
<path d="M4.67111 9.33431C4.83206 9.49526 5.07348 9.57573 5.23443 9.57573C5.39538 9.57573 5.6368 9.49526 5.79775 9.33431L9.25814 5.87392C9.58004 5.55202 9.58004 5.06918 9.25814 4.74728C8.93624 4.42539 8.4534 4.42539 8.1315 4.74728L4.67111 8.20767C4.34921 8.4491 4.34921 9.01242 4.67111 9.33431Z" fill="black"/>
</svg>
