<svg width="24" height="15" viewBox="0 0 24 15" fill="none" xmlns="http://www.w3.org/2000/svg">
<path d="M23 7.5C23 9.20391 21.8592 10.8192 19.8603 12.0316C17.8694 13.2391 15.0915 14 12 14C8.90853 14 6.13057 13.2391 4.13976 12.0316C2.14079 10.8192 1 9.20391 1 7.5C1 5.79609 2.14079 4.18077 4.13976 2.96836C6.13057 1.7609 8.90853 1 12 1C15.0915 1 17.8694 1.7609 19.8603 2.96836C21.8592 4.18077 23 5.79609 23 7.5Z" stroke="black"/>
<path d="M5 5H6.03463L8.01107 8.35434H8.02433V5H8.99928V10H7.95801L5.98821 6.65266H5.97494V10H5V5ZM9.91595 5H13.4576V5.92437H10.9572V6.9958H13.252V7.85014H10.9572V9.07563H13.5107V10H9.91595V5ZM18.7266 10H17.6919L16.8894 6.59664H16.8762L16.0869 10H15.0324L13.7789 5H14.8202L15.5696 8.40336H15.5829L16.4053 5H17.3802L18.1894 8.44538H18.2026L18.9786 5H20L18.7266 10Z" fill="black"/>
</svg>
