<svg width="45" height="41" viewBox="0 0 45 41" fill="none" xmlns="http://www.w3.org/2000/svg">
<path d="M38.6821 0.0589895C37.0462 0.242793 34.4868 1.01301 32.1474 2.01955C30.3708 2.78978 27.2221 4.38274 25.7094 5.28425C20.6786 8.29512 16.3515 11.7086 11.6285 16.4C9.06917 18.9469 7.5916 20.6012 5.97331 22.7543C0.344486 30.2114 -1.39693 36.0231 1.13604 38.894C1.79567 39.6379 2.77192 40.0405 4.56611 40.3119C5.91175 40.5132 8.13689 40.5132 9.52651 40.3206C13.6954 39.7167 16.2019 38.9465 20.0102 37.1084C21.6988 36.2945 21.7956 36.2507 21.8396 36.4345C21.8572 36.5395 21.9979 37.3185 22.1474 38.1587C22.4904 40.0755 22.5344 40.2331 22.8862 40.4432C23.282 40.6795 23.6777 40.662 23.9856 40.3731C24.1263 40.2331 25.1817 38.7452 26.325 37.0647C27.4684 35.3754 28.4534 33.9488 28.515 33.8875C28.603 33.8 29.3417 33.8788 32.464 34.3076C34.5836 34.5965 36.413 34.8328 36.5361 34.8328C36.6768 34.8328 36.8791 34.719 37.0638 34.5352C37.3013 34.2989 37.3628 34.1676 37.3628 33.8875C37.3628 33.5549 37.1869 33.3098 34.9002 30.369C33.5458 28.636 32.4376 27.1831 32.4376 27.1393C32.4376 27.1043 33.2116 25.4851 34.1526 23.5508C35.3839 21.0125 35.8677 19.9447 35.8677 19.7172C35.8677 19.3058 35.3927 18.8157 34.997 18.8157C34.8474 18.8157 33.0796 19.4108 31.0656 20.1285C29.0427 20.855 27.3453 21.4327 27.2837 21.4239C27.2221 21.4064 25.9205 20.1986 24.3901 18.7281C22.851 17.2577 21.4878 16.0061 21.3558 15.9361C21.004 15.761 20.5379 15.8748 20.2653 16.1986C19.9926 16.5137 19.9926 16.4087 20.1597 21.2664C20.2213 23.0694 20.2477 24.5748 20.2213 24.6011C20.1949 24.6361 18.5942 25.5026 16.6681 26.5266C12.9478 28.5047 12.9126 28.531 12.9126 29.1611C12.9126 29.7651 13.1237 29.8876 15.2257 30.5003C16.2811 30.8066 17.1694 31.0692 17.187 31.0955C17.2749 31.183 14.9355 32.3821 13.4227 33.021C11.3735 33.8963 9.5529 34.3689 7.89063 34.4564C6.63294 34.5177 6.36909 34.4477 5.84139 33.8613C5.25212 33.2048 5.12899 32.8109 5.25212 31.9444C5.49838 30.299 6.10524 29.1086 8.19846 26.1853C11.4614 21.6165 15.9029 16.6188 19.1483 13.8442C22.6927 10.8071 24.3374 9.6255 29.1834 6.65839C32.2969 4.74159 35.9556 3.13988 38.3215 2.64974C39.799 2.3434 41.5756 2.79853 42.3144 3.66503C43.1939 4.70658 42.5343 8.00628 40.7401 11.5686C40.2036 12.6276 39.157 14.4306 38.2335 15.8836L37.4508 17.1089L38.2951 16.2337C41.8131 12.5751 44.2317 8.68023 44.8826 5.6431C45.3399 3.48123 44.434 1.41563 42.6398 0.540378C41.7076 0.0852461 40.1508 -0.107309 38.6821 0.0589895Z" fill="black"/>
</svg>
