<svg width="18" height="22" viewBox="0 0 18 22" fill="none" xmlns="http://www.w3.org/2000/svg">
<g clip-path="url(#clip0_418_844)">
<path d="M0.0625 12.1659L0.170931 11.8506L0.257676 11.7034L0.322735 11.5563L0.474539 11.262L0.626342 10.9677L0.821519 10.6944L0.995009 10.4211L1.19018 10.1479L1.40705 9.87459L1.60222 9.64336L1.84077 9.37008L2.05763 9.13885L2.29618 8.92864L2.53473 8.69741L2.79497 8.46618L3.0552 8.27699L3.31544 8.06678L3.61904 7.87759L3.90097 7.70942L4.18289 7.54126L4.46481 7.39411L4.76842 7.22594L5.09371 7.07879L5.39732 6.95267L5.72261 6.84756L6.0479 6.74246L6.3732 6.63735L6.72018 6.57429L7.06716 6.4902L7.41414 6.42714L7.73943 6.3851L8.1081 6.34306L8.47676 6.32204V5.69141H9.47433V6.32204L9.64782 6.34306H9.82131L10.19 6.40612L10.537 6.44816L10.8839 6.51123L11.2092 6.59531L11.5345 6.65837L11.8598 6.76348L12.1851 6.86858L12.4887 6.99471L12.814 7.12084L13.1176 7.24696L13.4212 7.39411L13.7248 7.56228L14.0068 7.73045L14.2887 7.91963L14.5489 8.10882L14.8308 8.29801L15.0694 8.50822L15.3296 8.71843L15.5682 8.92864L15.8067 9.1809L16.0236 9.39111L16.2621 9.66438L16.4573 9.89561L16.6525 10.1479L16.8477 10.4422L17.0428 10.7154L17.2163 10.9887L17.3681 11.262L17.5199 11.5563L17.6717 11.8506L17.7802 12.1659L17.6934 12.0608L17.6067 11.9767L17.5199 11.8506L17.3898 11.7875L17.1946 11.6193L17.1079 11.5773L17.0645 11.5352L16.9344 11.4722L16.6742 11.3671L16.544 11.325L16.4139 11.283L16.2838 11.262L16.1103 11.241L15.9585 11.2199H15.8284H15.5682L15.4597 11.241L15.3296 11.262L15.2212 11.304L15.1128 11.325L14.8742 11.4091L14.679 11.5142L14.4622 11.6193L14.267 11.7455L14.1802 11.8295L14.0935 11.9136L13.92 11.7455L13.7465 11.6193L13.6381 11.5563L13.5297 11.5142L13.4212 11.4512L13.3128 11.4091L13.0959 11.325L12.9658 11.304L12.8574 11.262L12.6405 11.2199H12.3803H12.1201L12.0116 11.241L11.8815 11.262L11.7731 11.304L11.6646 11.325L11.4261 11.4091L11.2092 11.5142L11.0141 11.6193L10.8189 11.7455L10.7321 11.8295L10.6454 11.9136L10.537 11.8085L10.4068 11.6824L10.255 11.5983L10.1032 11.5352L9.95143 11.4512L9.79963 11.3671L9.62614 11.325L9.56108 11.304L9.47433 11.283V18.9557V19.1869V19.3761L9.45265 19.5863L9.43096 19.7755L9.38759 19.9437L9.34421 20.1118L9.30084 20.259L9.25747 20.3851L9.17072 20.5112L9.12735 20.6163L9.04061 20.7214L8.95386 20.8476L8.84543 20.9316L8.737 21.0157L8.65025 21.0788L8.52014 21.1629L8.39002 21.2259L8.2599 21.289L8.1081 21.331L7.97798 21.3521L7.82618 21.3941L7.67437 21.4151H7.50088L7.34908 21.4361L7.11053 21.4151L6.87198 21.3941L6.65512 21.331L6.45994 21.289L6.28645 21.2049L6.11296 21.1208L5.96116 20.9947L5.80936 20.8686L5.67924 20.7214L5.63587 20.6374L5.57081 20.5533L5.48406 20.3851L5.44069 20.259L5.419 20.1749L5.35394 19.9647L5.33226 19.7334L5.31057 19.4812L5.28889 19.2079L6.19971 19.0818L6.22139 19.292L6.24308 19.4812L6.26477 19.6494L6.30814 19.7965L6.32983 19.9437L6.39488 20.0698L6.43826 20.1118L6.45994 20.1539L6.525 20.259L6.61175 20.322L6.67681 20.3851L6.78524 20.4271L6.87198 20.4902L6.98041 20.5112L7.08884 20.5533L7.21896 20.5743H7.32739L7.52257 20.5533L7.69606 20.5112L7.84786 20.4692L7.97798 20.4061L8.04304 20.3431L8.1081 20.301L8.21653 20.1959L8.2599 20.1328L8.30327 20.0698L8.36833 19.9437L8.39002 19.8596L8.41171 19.7755L8.43339 19.5443L8.45508 19.313L8.47676 19.0187V11.262L8.36833 11.283L8.28159 11.304L8.1081 11.3671L7.93461 11.4091L7.76112 11.4932L7.60931 11.5773L7.45751 11.6824L7.32739 11.7875L7.19728 11.9136L7.02379 11.7455L6.82861 11.6193L6.74186 11.5563L6.63343 11.5142L6.525 11.4512L6.41657 11.4091L6.17802 11.325L6.06959 11.304L5.96116 11.262L5.72261 11.2199H5.46238H5.20214L5.09371 11.241L4.98528 11.262L4.87685 11.304L4.72504 11.325L4.52987 11.4091L4.313 11.5142L4.09614 11.6193L3.92265 11.7455L3.81422 11.8295L3.74916 11.9136L3.57567 11.7455L3.3805 11.6193L3.29375 11.5563L3.16363 11.5142L3.07689 11.4512L2.96846 11.4091L2.72991 11.325L2.62148 11.304L2.51305 11.262L2.25281 11.2199H2.01426H1.88414L1.73234 11.241L1.55885 11.262L1.42873 11.283L1.1685 11.3671L1.03838 11.4091L0.908264 11.4722L0.648029 11.6193L0.539597 11.6824L0.452852 11.7875L0.322735 11.8506L0.23599 11.9767L0.0625 12.1659Z" fill="black"/>
<path d="M0 12.1437L0.130117 11.8284L0.195176 11.6812L0.281921 11.5341L0.433725 11.2188L0.585529 10.9245L0.780705 10.6512L0.932509 10.3779L1.14937 10.1047L1.34455 9.83139L1.56141 9.57913L1.77827 9.3479L2.01682 9.09565L2.25537 8.86442L2.49392 8.63319L2.75415 8.444L3.01439 8.21277L3.29631 8.02358L3.57823 7.83439L3.86015 7.66622L4.14207 7.47703L4.44568 7.32988L4.74929 7.18274L5.0529 7.03559L5.37819 6.90946L5.70348 6.78334L6.02878 6.67823L6.35407 6.59415L6.70105 6.48904L7.04803 6.42598L7.4167 6.36292L7.74199 6.32088L8.11066 6.27883L8.47932 6.25781V6.38394L8.11066 6.40496L7.76368 6.447L7.4167 6.48904L7.0914 6.55211L6.74442 6.61517L6.39744 6.72027L6.07215 6.80436L5.74686 6.90946L5.42156 7.03559L5.11795 7.16172L4.81435 7.28784L4.51074 7.43499L4.22882 7.58214L3.92521 7.77133L3.64329 7.93949L3.36137 8.12868L3.10113 8.31787L2.8409 8.52808L2.58066 8.73829L2.3638 8.9485L2.10357 9.20076L1.8867 9.43199L1.66984 9.68424L1.45298 9.93649L1.2578 10.1887L1.06263 10.441L0.86745 10.7353L0.69396 11.0086L0.542156 11.3029L0.390352 11.5972L0.303607 11.7443L0.238549 11.8914L0.130117 12.1857L0 12.1437Z" fill="black"/>
<path d="M8.39062 5.69141H8.52074V6.32204H8.39062V5.69141Z" fill="black"/>
<path d="M8.45568 6.38394C8.49161 6.38394 8.52074 6.3557 8.52074 6.32088C8.52074 6.28605 8.49161 6.25781 8.45568 6.25781C8.41975 6.25781 8.39062 6.28605 8.39062 6.32088C8.39062 6.3557 8.41975 6.38394 8.45568 6.38394Z" fill="black"/>
<path d="M8.47656 5.62891H9.47413V5.75503H8.47656V5.62891Z" fill="black"/>
<path d="M8.45568 5.75503C8.49161 5.75503 8.52074 5.7268 8.52074 5.69197C8.52074 5.65714 8.49161 5.62891 8.45568 5.62891C8.41975 5.62891 8.39062 5.65714 8.39062 5.69197C8.39062 5.7268 8.41975 5.75503 8.45568 5.75503Z" fill="black"/>
<path d="M9.41406 5.69141H9.54418V6.32204H9.41406V5.69141Z" fill="black"/>
<path d="M9.47912 5.75503C9.51505 5.75503 9.54418 5.7268 9.54418 5.69197C9.54418 5.65714 9.51505 5.62891 9.47912 5.62891C9.44319 5.62891 9.41406 5.65714 9.41406 5.69197C9.41406 5.7268 9.44319 5.75503 9.47912 5.75503Z" fill="black"/>
<path d="M9.47656 6.28125H9.65005L9.82354 6.30227L10.1922 6.32329L10.5392 6.38636L10.8862 6.44942L11.2115 6.51248L11.5584 6.61759L11.8837 6.70167L12.209 6.80678L12.5343 6.9329L12.8379 7.05903L13.1415 7.20617L13.4451 7.35332L13.7488 7.52149L14.0524 7.68966L14.3343 7.85783L14.5945 8.04702L14.8548 8.25723L15.1367 8.46744L15.3752 8.67765L15.6355 8.90888L15.8523 9.11909L16.0909 9.37134L16.3077 9.62359L16.5246 9.85482L16.7198 10.1281L16.9149 10.4014L17.0884 10.6746L17.2619 10.9479L17.4137 11.2422L17.5655 11.5365L17.7173 11.8308L17.8475 12.1461L17.7173 12.1882L17.5872 11.8939L17.4571 11.5996L17.3053 11.3053L17.1535 11.032L16.98 10.7377L16.7848 10.4644L16.5897 10.1912L16.4162 9.95993L16.1993 9.68666L15.9824 9.45542L15.7656 9.22419L15.527 8.99296L15.2885 8.76173L15.0282 8.55152L14.7897 8.34131L14.5295 8.15212L14.2475 7.98395L13.9656 7.79476L13.6837 7.6266L13.4018 7.47945L13.0982 7.31128L12.7946 7.18515L12.491 7.05903L12.1657 6.9329L11.8404 6.8278L11.5368 6.74371L11.1898 6.63861L10.8645 6.57554L10.5175 6.51248L10.1705 6.47044L9.82354 6.4284L9.65005 6.40738H9.47656V6.28125Z" fill="black"/>
<path d="M9.47912 6.40738C9.51505 6.40738 9.54418 6.37914 9.54418 6.34431C9.54418 6.30948 9.51505 6.28125 9.47912 6.28125C9.44319 6.28125 9.41406 6.30948 9.41406 6.34431C9.41406 6.37914 9.44319 6.40738 9.47912 6.40738Z" fill="black"/>
<path d="M17.7365 12.2073L17.6498 12.1022L17.5413 11.9971L17.4546 11.913L17.3678 11.8289L17.1293 11.6818L17.0642 11.6397L17.0426 11.5977L16.9124 11.5346L16.6522 11.4295L16.5221 11.3665H16.392L16.2618 11.3244L16.11 11.3034L15.9582 11.2824H15.8281V11.1562L15.9799 11.1773H16.1317L16.2835 11.1983L16.4353 11.2193L16.5655 11.2614L16.7173 11.3244L16.9558 11.4085L17.0859 11.4926L17.151 11.5346L17.216 11.5556L17.4329 11.7238L17.5413 11.8289L17.6498 11.913L17.7365 12.0181L17.8449 12.1232L17.7365 12.2073Z" fill="black"/>
<path d="M17.7838 12.2316C17.8197 12.2316 17.8489 12.2034 17.8489 12.1685C17.8489 12.1337 17.8197 12.1055 17.7838 12.1055C17.7479 12.1055 17.7188 12.1337 17.7188 12.1685C17.7188 12.2034 17.7479 12.2316 17.7838 12.2316Z" fill="black"/>
<path d="M15.833 11.2824L15.5944 11.3034L15.486 11.3244L15.3559 11.3454L15.2257 11.3665L15.139 11.3875L14.9005 11.4716L14.7053 11.5556L14.5101 11.6818L14.3149 11.8079L14.2282 11.871L14.1631 11.955L14.0547 11.8499L14.1414 11.7869L14.2282 11.7028L14.4234 11.5556L14.6402 11.4505L14.8571 11.3665L15.0739 11.2614L15.2041 11.2193H15.3342L15.4426 11.1983L15.5727 11.1773L15.8113 11.1562L15.833 11.2824Z" fill="black"/>
<path d="M15.8307 11.2824C15.8666 11.2824 15.8957 11.2541 15.8957 11.2193C15.8957 11.1845 15.8666 11.1562 15.8307 11.1562C15.7948 11.1562 15.7656 11.1845 15.7656 11.2193C15.7656 11.2541 15.7948 11.2824 15.8307 11.2824Z" fill="black"/>
<path d="M14.0509 11.955L13.8991 11.8079L13.7039 11.6818L13.5955 11.6187L13.5087 11.5556L13.4003 11.5136L13.2919 11.4716L13.075 11.3875L12.9449 11.3665L12.8365 11.3454L12.6196 11.3034L12.3594 11.2824L12.3811 11.1562L12.6413 11.1773L12.8798 11.2193H12.9883L13.1184 11.2614L13.3353 11.3454L13.4437 11.3875L13.5738 11.4505L13.6822 11.5136L13.769 11.5556L13.9642 11.7028L14.1376 11.8499L14.0509 11.955Z" fill="black"/>
<path d="M14.1197 11.9582C14.1557 11.9582 14.1848 11.9299 14.1848 11.8951C14.1848 11.8603 14.1557 11.832 14.1197 11.832C14.0838 11.832 14.0547 11.8603 14.0547 11.8951C14.0547 11.9299 14.0838 11.9582 14.1197 11.9582Z" fill="black"/>
<path d="M12.3859 11.2824L12.1473 11.3034L12.0172 11.3244L11.9088 11.3454L11.7787 11.3665L11.6919 11.3875L11.4534 11.4716L11.2365 11.5556L11.063 11.6818L10.8679 11.8079L10.7811 11.871L10.6944 11.955L10.5859 11.8499L10.6944 11.7869L10.7811 11.7028L10.9763 11.5556L11.1932 11.4505L11.3883 11.3665L11.6269 11.2614L11.757 11.2193H11.8654L11.9955 11.1983L12.1257 11.1773L12.3642 11.1562L12.3859 11.2824Z" fill="black"/>
<path d="M12.3854 11.2824C12.4213 11.2824 12.4504 11.2541 12.4504 11.2193C12.4504 11.1845 12.4213 11.1562 12.3854 11.1562C12.3494 11.1562 12.3203 11.1845 12.3203 11.2193C12.3203 11.2541 12.3494 11.2824 12.3854 11.2824Z" fill="black"/>
<path d="M10.5826 11.9584L10.4741 11.8323L10.344 11.7482L10.2139 11.6641L10.0838 11.58L9.95366 11.517L9.80186 11.4329L9.62837 11.3908L9.54162 11.3698L9.47656 11.3488V11.2227L9.58499 11.2437L9.65005 11.2647L9.82354 11.3278L9.99703 11.3908L10.1488 11.4749L10.279 11.538L10.4308 11.6431L10.5826 11.7482L10.691 11.8533L10.5826 11.9584Z" fill="black"/>
<path d="M10.651 11.9582C10.6869 11.9582 10.7161 11.9299 10.7161 11.8951C10.7161 11.8603 10.6869 11.832 10.651 11.832C10.6151 11.832 10.5859 11.8603 10.5859 11.8951C10.5859 11.9299 10.6151 11.9582 10.651 11.9582Z" fill="black"/>
<path d="M9.41406 11.2852H9.54418V18.9578H9.41406V11.2852Z" fill="black"/>
<path d="M9.47912 11.3488C9.51505 11.3488 9.54418 11.3205 9.54418 11.2857C9.54418 11.2509 9.51505 11.2227 9.47912 11.2227C9.44319 11.2227 9.41406 11.2509 9.41406 11.2857C9.41406 11.3205 9.44319 11.3488 9.47912 11.3488Z" fill="black"/>
<path d="M9.54054 18.957V19.1883L9.51885 19.3775V19.6087L9.47548 19.7979L9.4538 19.966L9.41042 20.1132L9.36705 20.2603L9.32368 20.4075L9.17188 20.3654L9.23693 20.2393L9.28031 20.0922L9.32368 19.945L9.34536 19.7769L9.38874 19.5877V19.3775L9.41042 19.1883V18.957H9.54054Z" fill="black"/>
<path d="M9.47912 19.0207C9.51505 19.0207 9.54418 18.9924 9.54418 18.9576C9.54418 18.9228 9.51505 18.8945 9.47912 18.8945C9.44319 18.8945 9.41406 18.9228 9.41406 18.9576C9.41406 18.9924 9.44319 19.0207 9.47912 19.0207Z" fill="black"/>
<path d="M9.32233 20.4053L9.23558 20.5525L9.17052 20.6576L9.08378 20.7627L8.99703 20.8678L8.8886 20.9729L8.78017 21.057L8.69342 21.1411L8.54162 21.2041L8.47656 21.099L8.60668 21.036L8.69342 20.9519L8.80186 20.8678L8.8886 20.7837L8.99703 20.6996L9.06209 20.5735L9.12715 20.4684L9.17052 20.3633L9.32233 20.4053Z" fill="black"/>
<path d="M9.23693 20.4503C9.27286 20.4503 9.30199 20.4221 9.30199 20.3873C9.30199 20.3525 9.27286 20.3242 9.23693 20.3242C9.201 20.3242 9.17188 20.3525 9.17188 20.3873C9.17188 20.4221 9.201 20.4503 9.23693 20.4503Z" fill="black"/>
<path d="M8.54255 21.2067L8.41244 21.2908L8.28232 21.3328L8.13052 21.3748L7.97871 21.4379L7.84859 21.4589L7.6751 21.4799L7.5233 21.501H7.34981L7.32812 21.3538H7.50161L7.65342 21.3328H7.80522L7.95703 21.3118L8.08714 21.2697L8.21726 21.2067L8.36906 21.1856L8.49918 21.1016L8.54255 21.2067Z" fill="black"/>
<path d="M8.526 21.2277C8.56193 21.2277 8.59105 21.1995 8.59105 21.1646C8.59105 21.1298 8.56193 21.1016 8.526 21.1016C8.49007 21.1016 8.46094 21.1298 8.46094 21.1646C8.46094 21.1995 8.49007 21.2277 8.526 21.2277Z" fill="black"/>
<path d="M7.32703 21.5008H7.08849L6.84994 21.4588L6.63307 21.4167L6.4379 21.3326L6.24272 21.2696L6.06923 21.1855L5.89574 21.0383L5.76562 20.9122L5.85237 20.8281L6.00417 20.9543L6.15598 21.0594L6.30778 21.1645L6.48127 21.2275L6.65476 21.2906L6.87162 21.3326L7.11017 21.3537H7.34872L7.32703 21.5008Z" fill="black"/>
<path d="M7.33068 21.4777C7.36661 21.4777 7.39574 21.4495 7.39574 21.4146C7.39574 21.3798 7.36661 21.3516 7.33068 21.3516C7.29475 21.3516 7.26562 21.3798 7.26562 21.4146C7.26562 21.4495 7.29475 21.4777 7.33068 21.4777Z" fill="black"/>
<path d="M5.74703 20.9097L5.6386 20.7626L5.57354 20.6785L5.53017 20.5734L5.42174 20.4052L5.37837 20.3001L5.35668 20.195L5.29162 19.9638L5.24825 19.7326L5.22656 19.4803V19.207H5.35668V19.4803L5.37837 19.7115L5.42174 19.9428L5.4868 20.153L5.53017 20.2581V20.3422L5.6386 20.5314L5.68197 20.5944L5.72535 20.6785L5.85546 20.8256L5.74703 20.9097Z" fill="black"/>
<path d="M5.81506 20.9308C5.85099 20.9308 5.88012 20.9026 5.88012 20.8678C5.88012 20.8329 5.85099 20.8047 5.81506 20.8047C5.77913 20.8047 5.75 20.8329 5.75 20.8678C5.75 20.9026 5.77913 20.9308 5.81506 20.9308Z" fill="black"/>
<path d="M5.28906 19.1457L5.31075 19.2718L6.19988 19.1457L6.1782 19.0195L5.28906 19.1457Z" fill="black"/>
<path d="M5.29162 19.2707C5.32755 19.2707 5.35668 19.2424 5.35668 19.2076C5.35668 19.1728 5.32755 19.1445 5.29162 19.1445C5.25569 19.1445 5.22656 19.1728 5.22656 19.2076C5.22656 19.2424 5.25569 19.2707 5.29162 19.2707Z" fill="black"/>
<path d="M6.27074 19.082L6.29243 19.2922L6.31411 19.4814V19.6496L6.35749 19.7967L6.42255 19.9229L6.46592 20.028L6.4876 20.091L6.50929 20.1121L6.59604 20.2172L6.46592 20.2802L6.40086 20.1961L6.37917 20.1331L6.3358 20.091L6.29243 19.9649L6.24906 19.8178L6.20568 19.6496L6.16231 19.5025V19.2922L6.14062 19.082H6.27074Z" fill="black"/>
<path d="M6.20568 19.1457C6.24161 19.1457 6.27074 19.1174 6.27074 19.0826C6.27074 19.0478 6.24161 19.0195 6.20568 19.0195C6.16975 19.0195 6.14062 19.0478 6.14062 19.0826C6.14062 19.1174 6.16975 19.1457 6.20568 19.1457Z" fill="black"/>
<path d="M6.56937 20.2188L6.63443 20.2608L6.72117 20.3239L6.80792 20.3869L6.89466 20.4079L7.00309 20.45L7.11152 20.471L7.21996 20.492H7.32839V20.6181H7.19827L7.08984 20.5971L6.95972 20.5761L6.85129 20.5551L6.74286 20.492L6.63443 20.429L6.56937 20.3869L6.46094 20.2818L6.56937 20.2188Z" fill="black"/>
<path d="M6.526 20.3019C6.56193 20.3019 6.59105 20.2737 6.59105 20.2388C6.59105 20.204 6.56193 20.1758 6.526 20.1758C6.49007 20.1758 6.46094 20.204 6.46094 20.2388C6.46094 20.2737 6.49007 20.3019 6.526 20.3019Z" fill="black"/>
<path d="M7.32812 20.4909H7.50161L7.6751 20.4489L7.80522 20.4068L7.95703 20.3438L8.02208 20.4489L7.87028 20.5329L7.69679 20.575L7.5233 20.617H7.32812V20.4909Z" fill="black"/>
<path d="M7.33068 20.6183C7.36661 20.6183 7.39574 20.5901 7.39574 20.5553C7.39574 20.5204 7.36661 20.4922 7.33068 20.4922C7.29475 20.4922 7.26562 20.5204 7.26562 20.5553C7.26562 20.5901 7.29475 20.6183 7.33068 20.6183Z" fill="black"/>
<path d="M7.9375 20.3438L8.02424 20.3017L8.06762 20.2597L8.17605 20.1546L8.21942 20.1126L8.24111 20.0495L8.30617 19.9023L8.4146 19.9654L8.37122 20.1126L8.32785 20.1756L8.26279 20.2387L8.17605 20.3438L8.0893 20.4068L8.02424 20.4489L7.9375 20.3438Z" fill="black"/>
<path d="M7.97912 20.4503C8.01505 20.4503 8.04418 20.4221 8.04418 20.3873C8.04418 20.3525 8.01505 20.3242 7.97912 20.3242C7.94319 20.3242 7.91406 20.3525 7.91406 20.3873C7.91406 20.4221 7.94319 20.4503 7.97912 20.4503Z" fill="black"/>
<path d="M8.30469 19.9234L8.32637 19.8394L8.34806 19.7553L8.36975 19.5451L8.39143 19.3138V19.0195H8.52155V19.3138V19.5661L8.47818 19.7973L8.45649 19.8814L8.4348 19.9655L8.30469 19.9234Z" fill="black"/>
<path d="M8.36975 19.9855C8.40568 19.9855 8.4348 19.9573 8.4348 19.9224C8.4348 19.8876 8.40568 19.8594 8.36975 19.8594C8.33382 19.8594 8.30469 19.8876 8.30469 19.9224C8.30469 19.9573 8.33382 19.9855 8.36975 19.9855Z" fill="black"/>
<path d="M8.39062 11.2617H8.52074V19.0185H8.39062V11.2617Z" fill="black"/>
<path d="M8.45568 19.0597C8.49161 19.0597 8.52074 19.0315 8.52074 18.9967C8.52074 18.9618 8.49161 18.9336 8.45568 18.9336C8.41975 18.9336 8.39062 18.9618 8.39062 18.9967C8.39062 19.0315 8.41975 19.0597 8.45568 19.0597Z" fill="black"/>
<path d="M8.47736 11.3278L8.39061 11.3488L8.30387 11.3698L8.13038 11.4118L7.97858 11.4959L7.80509 11.538L7.65328 11.6431L7.50148 11.7272L7.37136 11.8323L7.24124 11.9584L7.13281 11.8533L7.26293 11.7482L7.41473 11.6431L7.58822 11.538L7.74003 11.4329L7.91352 11.3698L8.08701 11.3067L8.2605 11.2437L8.36893 11.2227H8.45567L8.47736 11.3278Z" fill="black"/>
<path d="M8.45568 11.3253C8.49161 11.3253 8.52074 11.2971 8.52074 11.2623C8.52074 11.2275 8.49161 11.1992 8.45568 11.1992C8.41975 11.1992 8.39062 11.2275 8.39062 11.2623C8.39062 11.2971 8.41975 11.3253 8.45568 11.3253Z" fill="black"/>
<path d="M7.13859 11.955L6.98679 11.8079L6.79161 11.6818L6.70487 11.6187L6.61812 11.5556L6.488 11.5136L6.40126 11.4716L6.16271 11.3875L6.05428 11.3665L5.94585 11.3454L5.7073 11.3034L5.46875 11.2824L5.49044 11.1562L5.72898 11.1773L5.98922 11.2193H6.09765L6.20608 11.2614L6.44463 11.3454L6.55306 11.3875L6.66149 11.4505L6.79161 11.5136L6.87836 11.5556L7.07353 11.7028L7.24702 11.8499L7.13859 11.955Z" fill="black"/>
<path d="M7.18225 11.9582C7.21818 11.9582 7.2473 11.9299 7.2473 11.8951C7.2473 11.8603 7.21818 11.832 7.18225 11.832C7.14632 11.832 7.11719 11.8603 7.11719 11.8951C7.11719 11.9299 7.14632 11.9582 7.18225 11.9582Z" fill="black"/>
<path d="M5.48746 11.2824L5.22722 11.3034L5.11879 11.3244L4.98867 11.3454L4.88024 11.3665L4.77181 11.3875L4.55495 11.4716L4.33809 11.5556L4.14291 11.6818L3.94773 11.8079L3.88268 11.871L3.79593 11.955L3.6875 11.8499L3.79593 11.7869L3.88268 11.7028L4.07785 11.5556L4.27303 11.4505L4.48989 11.3665L4.72844 11.2614L4.85856 11.2193H4.96699L5.07542 11.1983L5.20554 11.1773L5.46577 11.1562L5.48746 11.2824Z" fill="black"/>
<path d="M5.4635 11.2824C5.49943 11.2824 5.52855 11.2541 5.52855 11.2193C5.52855 11.1845 5.49943 11.1562 5.4635 11.1562C5.42757 11.1562 5.39844 11.1845 5.39844 11.2193C5.39844 11.2541 5.42757 11.2824 5.4635 11.2824Z" fill="black"/>
<path d="M3.68547 11.955L3.53366 11.8079L3.33849 11.6818L3.25174 11.6187L3.14331 11.5556L3.03488 11.5136L2.94813 11.4716L2.70958 11.3875L2.60115 11.3665L2.49272 11.3454L2.25417 11.3034L2.01562 11.2824L2.03731 11.1562L2.27586 11.1773L2.51441 11.2193H2.64453L2.75296 11.2614L2.99151 11.3454L3.09994 11.3875L3.20837 11.4505L3.3168 11.5136L3.42523 11.5556L3.62041 11.7028L3.7939 11.8499L3.68547 11.955Z" fill="black"/>
<path d="M3.72912 11.9582C3.76505 11.9582 3.79418 11.9299 3.79418 11.8951C3.79418 11.8603 3.76505 11.832 3.72912 11.832C3.69319 11.832 3.66406 11.8603 3.66406 11.8951C3.66406 11.9299 3.69319 11.9582 3.72912 11.9582Z" fill="black"/>
<path d="M2.03851 11.2824H1.8867L1.7349 11.3034L1.5831 11.3244L1.45298 11.3665L1.19274 11.4295L1.06263 11.4926L0.932509 11.5346L0.69396 11.6818L0.585529 11.7448L0.477097 11.8289L0.390352 11.913L0.303607 11.9971L0.108431 12.2073L0 12.1232L0.17349 11.913L0.303607 11.8289L0.390352 11.7238L0.498784 11.6397L0.628901 11.5556L0.86745 11.4085L0.997567 11.3665L1.12768 11.3034L1.40961 11.2193L1.56141 11.1983L1.71321 11.1773H1.86502L2.01682 11.1562L2.03851 11.2824Z" fill="black"/>
<path d="M2.01818 11.2824C2.05411 11.2824 2.08324 11.2541 2.08324 11.2193C2.08324 11.1845 2.05411 11.1562 2.01818 11.1562C1.98225 11.1562 1.95312 11.1845 1.95312 11.2193C1.95312 11.2541 1.98225 11.2824 2.01818 11.2824Z" fill="black"/>
<path d="M0.0650587 12.2316C0.10099 12.2316 0.130117 12.2034 0.130117 12.1685C0.130117 12.1337 0.10099 12.1055 0.0650587 12.1055C0.0291278 12.1055 0 12.1337 0 12.1685C0 12.2034 0.0291278 12.2316 0.0650587 12.2316Z" fill="black"/>
<path d="M5.55549 4.72607L5.59887 4.68403L5.66393 4.62096L5.7073 4.5579L5.81573 4.49484L6.01091 4.34769L6.20608 4.22157L6.57475 4.01136L6.74824 3.90625L6.66149 4.51586L6.61812 4.74709L6.57475 4.97832L6.50969 5.16751L6.46632 5.29364L6.42294 5.33568L6.37957 5.37772L6.31451 5.44078L6.20608 5.50385L6.11934 5.52487L6.05428 5.54589H6.01091H5.96753L5.90247 5.52487L5.81573 5.50385L5.7073 5.44078L5.68561 5.41976L5.62055 5.39874L5.55549 5.29364L5.51212 5.23057L5.49044 5.10445L5.46875 5.08343V5.02036V4.9573V4.93628L5.51212 4.81015L5.55549 4.72607Z" fill="black"/>
<path d="M5.50781 4.6831L5.5295 4.62004L5.59456 4.578L5.6813 4.51493L5.76805 4.45187L5.96322 4.32574L6.1584 4.1786L6.54875 3.94737L6.70056 3.86328L6.7873 3.96839L6.61381 4.05247L6.24514 4.2837L6.02828 4.40983L5.83311 4.55697L5.74636 4.62004L5.6813 4.66208L5.63793 4.72514L5.59456 4.76719L5.50781 4.6831Z" fill="black"/>
<path d="M6.78879 3.90625L6.72373 4.51586L6.68036 4.76811L6.63699 4.99934L6.57193 5.18853L6.50687 5.31466L6.39844 5.27262L6.4635 5.14649L6.48518 4.9573L6.55024 4.74709L6.59361 4.49484L6.65867 3.90625H6.78879Z" fill="black"/>
<path d="M6.72131 3.96988C6.75724 3.96988 6.78637 3.94164 6.78637 3.90681C6.78637 3.87198 6.75724 3.84375 6.72131 3.84375C6.68538 3.84375 6.65625 3.87198 6.65625 3.90681C6.65625 3.94164 6.68538 3.96988 6.72131 3.96988Z" fill="black"/>
<path d="M6.50376 5.33408L6.46039 5.39715L6.43871 5.41817L6.33027 5.50225L6.24353 5.54429L6.1351 5.58634H6.07004H6.00498H5.93992H5.87486L5.78812 5.54429L5.67969 5.50225L5.72306 5.39715L5.83149 5.43919L5.91824 5.46021H5.96161L6.00498 5.48123L6.04835 5.46021H6.09173L6.17847 5.43919L6.26522 5.39715L6.33027 5.33408L6.35196 5.29204L6.39533 5.25L6.50376 5.33408Z" fill="black"/>
<path d="M6.44006 5.35659C6.47599 5.35659 6.50512 5.32836 6.50512 5.29353C6.50512 5.2587 6.47599 5.23047 6.44006 5.23047C6.40413 5.23047 6.375 5.2587 6.375 5.29353C6.375 5.32836 6.40413 5.35659 6.44006 5.35659Z" fill="black"/>
<path d="M5.67861 5.50341L5.61355 5.46137L5.57018 5.41933L5.50512 5.33525L5.44006 5.25116L5.39669 5.12504V5.08299L5.375 5.01993L5.39669 4.95687V4.91482L5.44006 4.7887L5.50512 4.68359L5.61355 4.76768L5.54849 4.85176L5.5268 4.93585V4.97789V5.01993V5.08299V5.10401L5.54849 5.1881L5.61355 5.25116L5.67861 5.33525L5.70029 5.37729L5.74367 5.39831L5.67861 5.50341Z" fill="black"/>
<path d="M5.70568 5.52456C5.74161 5.52456 5.77074 5.49633 5.77074 5.4615C5.77074 5.42667 5.74161 5.39844 5.70568 5.39844C5.66975 5.39844 5.64062 5.42667 5.64062 5.4615C5.64062 5.49633 5.66975 5.52456 5.70568 5.52456Z" fill="black"/>
<path d="M5.54943 4.79019C5.58536 4.79019 5.61449 4.76195 5.61449 4.72713C5.61449 4.6923 5.58536 4.66406 5.54943 4.66406C5.5135 4.66406 5.48438 4.6923 5.48438 4.72713C5.48438 4.76195 5.5135 4.79019 5.54943 4.79019Z" fill="black"/>
<path d="M10.0399 3.92529L10.0832 3.88325L10.1266 3.8412L10.2134 3.75712L10.3001 3.71508L10.4953 3.56793L10.7121 3.42078L11.0591 3.21057L11.2326 3.10547L11.1459 3.71508L11.1025 3.96733L11.0591 4.17754L11.0158 4.36673L10.9507 4.49286L10.9073 4.5349L10.8856 4.59796L10.7989 4.64L10.7121 4.70307L10.6037 4.72409L10.5603 4.74511H10.4953H10.4519H10.4085L10.3001 4.70307L10.2134 4.64L10.1483 4.61898L10.1049 4.59796L10.0616 4.51388L9.9965 4.42979L9.95312 4.32469V4.28265V4.21958V4.17754V4.1355L9.9965 4.00937L10.0399 3.92529Z" fill="black"/>
<path d="M10 3.88623L10.0434 3.84418L10.1084 3.78112L10.1735 3.71806L10.2602 3.65499L10.4554 3.52887L10.6723 3.38172L11.0409 3.15049L11.2144 3.06641L11.2795 3.17151L11.106 3.2556L10.7373 3.48683L10.5422 3.63397L10.347 3.7601L10.2602 3.82316L10.1952 3.86521L10.1301 3.92827L10.1084 3.99133L10 3.88623Z" fill="black"/>
<path d="M11.2949 3.12649L11.2081 3.71508L11.1647 3.96733L11.1214 4.19856L11.0563 4.38775L11.0129 4.5349L10.8828 4.47184L10.9262 4.34571L10.9912 4.17754L11.0563 3.94631L11.078 3.71508L11.1647 3.10547L11.2949 3.12649Z" fill="black"/>
<path d="M11.2369 3.19253C11.2729 3.19253 11.302 3.1643 11.302 3.12947C11.302 3.09464 11.2729 3.06641 11.2369 3.06641C11.201 3.06641 11.1719 3.09464 11.1719 3.12947C11.1719 3.1643 11.201 3.19253 11.2369 3.19253Z" fill="black"/>
<path d="M10.996 4.53572L10.9743 4.59878L10.9309 4.6198L10.8441 4.70389L10.7357 4.76695L10.6273 4.78797H10.5839L10.5189 4.80899L10.4321 4.78797H10.3887L10.2586 4.76695L10.1719 4.70389L10.2369 4.59878L10.3237 4.64082L10.4321 4.66185L10.4538 4.68287H10.4972H10.5622L10.5839 4.66185L10.6923 4.64082L10.7574 4.59878L10.8441 4.53572L10.8658 4.49368L10.9092 4.47266L10.996 4.53572Z" fill="black"/>
<path d="M10.9479 4.57925C10.9838 4.57925 11.0129 4.55102 11.0129 4.51619C11.0129 4.48136 10.9838 4.45312 10.9479 4.45312C10.9119 4.45312 10.8828 4.48136 10.8828 4.51619C10.8828 4.55102 10.9119 4.57925 10.9479 4.57925Z" fill="black"/>
<path d="M10.1509 4.70505L10.1075 4.68403L10.0858 4.62096L9.99906 4.5579L9.95568 4.4528L9.91231 4.34769L9.89062 4.28463V4.22157V4.17952L9.91231 4.11646L9.934 4.01136L9.97737 3.90625L10.1075 3.96931L10.0641 4.0534L10.0207 4.1585V4.17952V4.22157V4.28463L10.0424 4.32667L10.0641 4.41075L10.1075 4.47382L10.1725 4.5579L10.2159 4.57892L10.2593 4.62096L10.1509 4.70505Z" fill="black"/>
<path d="M10.1901 4.72378C10.226 4.72378 10.2551 4.69555 10.2551 4.66072C10.2551 4.62589 10.226 4.59766 10.1901 4.59766C10.1541 4.59766 10.125 4.62589 10.125 4.66072C10.125 4.69555 10.1541 4.72378 10.1901 4.72378Z" fill="black"/>
<path d="M10.0416 3.98941C10.0776 3.98941 10.1067 3.96117 10.1067 3.92634C10.1067 3.89152 10.0776 3.86328 10.0416 3.86328C10.0057 3.86328 9.97656 3.89152 9.97656 3.92634C9.97656 3.96117 10.0057 3.98941 10.0416 3.98941Z" fill="black"/>
<path d="M11.5789 1.27778L11.6223 1.25676L11.6874 1.17267L11.7524 1.10961L11.8392 1.06757L12.0127 0.92042L12.2295 0.794294L12.6199 0.563063L12.7717 0.5L12.6849 1.06757L12.6416 1.2988L12.5982 1.55105L12.5331 1.71922L12.4898 1.86637L12.4464 1.88739L12.403 1.92943L12.3163 2.01351L12.2295 2.05556L12.1428 2.07658L12.0994 2.0976H12.0343H11.991L11.9259 2.07658L11.8392 2.05556L11.7307 2.01351L11.6874 1.99249L11.6657 1.95045L11.5789 1.86637L11.5356 1.78228L11.5139 1.67718L11.4922 1.63514V1.57207V1.53003L11.5139 1.48799L11.5356 1.38288L11.5789 1.27778Z" fill="black"/>
<path d="M11.5391 1.25732L11.5607 1.19426L11.6258 1.13119L11.6909 1.06813L11.7993 1.00507L11.9945 0.878941L12.1896 0.731794L12.58 0.500563L12.7318 0.4375L12.7969 0.521584L12.6451 0.626689L12.2764 0.836899L12.0595 0.963026L11.8644 1.11017L11.7993 1.17324L11.7126 1.2363L11.6692 1.27834L11.6258 1.32038L11.5391 1.25732Z" fill="black"/>
<path d="M12.8417 0.5L12.755 1.08859L12.7116 1.31982L12.6465 1.57207L12.6032 1.74024L12.5381 1.86637L12.4297 1.84535L12.4947 1.71922L12.5164 1.53003L12.5815 1.2988L12.6249 1.06757L12.7116 0.5H12.8417Z" fill="black"/>
<path d="M12.776 0.521584C12.8119 0.521584 12.8411 0.502761 12.8411 0.479542C12.8411 0.456323 12.8119 0.4375 12.776 0.4375C12.7401 0.4375 12.7109 0.456323 12.7109 0.479542C12.7109 0.502761 12.7401 0.521584 12.776 0.521584Z" fill="black"/>
<path d="M12.5333 1.88728L12.4899 1.92932L12.4682 1.99239L12.3598 2.05545L12.273 2.11851L12.1646 2.16056H12.0995H12.0345H11.9911H11.9044L11.8176 2.11851L11.6875 2.05545L11.7526 1.95034L11.8393 2.01341H11.9477H11.9911L12.0345 2.03443L12.0779 2.01341H12.1212H12.208L12.2947 1.95034L12.3598 1.88728L12.4031 1.86626L12.4248 1.82422L12.5333 1.88728Z" fill="black"/>
<path d="M12.4947 1.90738C12.5307 1.90738 12.5598 1.87914 12.5598 1.84431C12.5598 1.80948 12.5307 1.78125 12.4947 1.78125C12.4588 1.78125 12.4297 1.80948 12.4297 1.84431C12.4297 1.87914 12.4588 1.90738 12.4947 1.90738Z" fill="black"/>
<path d="M11.6899 2.05661L11.6465 2.01457L11.6032 1.99355L11.5381 1.88844L11.4731 1.80436L11.4297 1.69925V1.63619V1.57313V1.53109V1.46802L11.4731 1.36292L11.5381 1.25781L11.6465 1.32088L11.5815 1.40496L11.5598 1.51006L11.5381 1.55211V1.57313L11.5598 1.61517V1.67823L11.5815 1.7413L11.6465 1.82538L11.6899 1.88844L11.7333 1.93049L11.7767 1.95151L11.6899 2.05661Z" fill="black"/>
<path d="M11.7291 2.07534C11.7651 2.07534 11.7942 2.04711 11.7942 2.01228C11.7942 1.97745 11.7651 1.94922 11.7291 1.94922C11.6932 1.94922 11.6641 1.97745 11.6641 2.01228C11.6641 2.04711 11.6932 2.07534 11.7291 2.07534Z" fill="black"/>
<path d="M11.5807 1.3605C11.6166 1.3605 11.6457 1.33227 11.6457 1.29744C11.6457 1.26261 11.6166 1.23438 11.5807 1.23438C11.5448 1.23438 11.5156 1.26261 11.5156 1.29744C11.5156 1.33227 11.5448 1.3605 11.5807 1.3605Z" fill="black"/>
<path d="M14.4852 2.77053L14.5286 2.70747L14.5936 2.6444L14.6587 2.60236L14.7454 2.51828L14.9406 2.39215L15.1575 2.26602L15.5044 2.01377L15.6779 1.92969L15.6129 2.5393L15.5478 2.79155L15.5044 3.00176L15.4611 3.19095L15.396 3.31707L15.3526 3.38014L15.3309 3.40116L15.2442 3.46422L15.1575 3.52729L15.049 3.54831H15.0057H14.9623H14.8972H14.8538L14.7454 3.52729L14.6587 3.48524L14.5936 3.4432L14.5502 3.40116L14.5069 3.3381L14.4418 3.25401L14.4201 3.14891L14.3984 3.08584V3.0438V3.00176V2.9387L14.4418 2.85461L14.4852 2.77053Z" fill="black"/>
<path d="M14.4453 2.70803L14.4887 2.64497L14.5321 2.60292L14.6188 2.53986L14.7055 2.4768L14.9007 2.32965L15.1176 2.20352L15.4863 1.97229L15.6381 1.86719L15.7248 1.99331L15.5513 2.0774L15.1826 2.32965L14.9875 2.45578L14.7923 2.5819L14.7055 2.64497L14.6405 2.70803L14.5754 2.75007L14.5321 2.79211L14.4453 2.70803Z" fill="black"/>
<path d="M15.748 1.95071L15.6612 2.5393L15.6395 2.79155L15.5745 3.02278L15.5094 3.23299L15.4661 3.35912L15.3359 3.29605L15.401 3.16993L15.4444 2.98074L15.4877 2.77053L15.5311 2.5393L15.6179 1.92969L15.748 1.95071Z" fill="black"/>
<path d="M15.6822 1.99331C15.7182 1.99331 15.7473 1.96508 15.7473 1.93025C15.7473 1.89542 15.7182 1.86719 15.6822 1.86719C15.6463 1.86719 15.6172 1.89542 15.6172 1.93025C15.6172 1.96508 15.6463 1.99331 15.6822 1.99331Z" fill="black"/>
<path d="M15.463 3.35752L15.4196 3.39956L15.3762 3.44161L15.2895 3.52569L15.181 3.56773L15.0726 3.60977L15.0075 3.63079H14.9642H14.8774L14.834 3.60977L14.7256 3.58875L14.6172 3.54671L14.6822 3.42058L14.769 3.46263L14.8557 3.50467H14.8991H14.9425H15.0075L15.0292 3.48365L15.1377 3.46263L15.2027 3.42058L15.2895 3.35752L15.3111 3.3365L15.3328 3.27344L15.463 3.35752Z" fill="black"/>
<path d="M15.401 3.38003C15.4369 3.38003 15.4661 3.3518 15.4661 3.31697C15.4661 3.28214 15.4369 3.25391 15.401 3.25391C15.3651 3.25391 15.3359 3.28214 15.3359 3.31697C15.3359 3.3518 15.3651 3.38003 15.401 3.38003Z" fill="black"/>
<path d="M14.6179 3.52536L14.5528 3.50434L14.5311 3.4623L14.4444 3.37821L14.3793 3.27311L14.3576 3.168V3.10494L14.3359 3.04188V2.99984L14.3576 2.93677L14.3793 2.81065L14.4227 2.72656L14.5311 2.78963L14.5094 2.87371L14.4877 2.95779L14.4661 2.99984V3.04188V3.08392L14.4877 3.12596L14.5094 3.23107L14.5528 3.29413L14.6179 3.37821L14.6612 3.39924L14.7046 3.42026L14.6179 3.52536Z" fill="black"/>
<path d="M14.6354 3.52847C14.6713 3.52847 14.7004 3.50024 14.7004 3.46541C14.7004 3.43058 14.6713 3.40234 14.6354 3.40234C14.5994 3.40234 14.5703 3.43058 14.5703 3.46541C14.5703 3.50024 14.5994 3.52847 14.6354 3.52847Z" fill="black"/>
<path d="M14.4869 2.81363C14.5229 2.81363 14.552 2.78539 14.552 2.75056C14.552 2.71573 14.5229 2.6875 14.4869 2.6875C14.451 2.6875 14.4219 2.71573 14.4219 2.75056C14.4219 2.78539 14.451 2.81363 14.4869 2.81363Z" fill="black"/>
<path d="M12.8151 5.54397L12.8584 5.4809L12.9235 5.41784L12.9885 5.3758L13.097 5.29171L13.2705 5.16559L13.4873 5.03946L13.856 4.80823L14.0295 4.70312L13.9211 5.31273L13.8994 5.54397L13.8343 5.7752L13.7909 5.98541L13.7476 6.11153L13.7042 6.15358L13.6608 6.1746L13.5958 6.25868L13.4873 6.30072L13.4006 6.32174H13.3355H13.2705H13.2488H13.1837L13.097 6.30072L12.9669 6.25868L12.9452 6.21664L12.9018 6.1746L12.8151 6.11153L12.7934 6.00643L12.75 5.92234V5.85928V5.83826V5.7752V5.71213L12.7934 5.62805L12.8151 5.54397Z" fill="black"/>
<path d="M12.7734 5.50249L12.8168 5.43942L12.8819 5.39738L12.9469 5.3133L13.0337 5.25023L13.2505 5.10309L13.4457 4.97696L13.8144 4.76675L13.9879 4.64062L14.0529 4.76675L13.9011 4.87186L13.5108 5.08207L13.3156 5.22921L13.1204 5.35534L13.0337 5.4184L12.9686 5.48147L12.9252 5.54453L12.8819 5.56555L12.7734 5.50249Z" fill="black"/>
<path d="M14.0761 4.72415L14.011 5.33376L13.946 5.56499L13.9026 5.79622L13.8592 6.00643L13.7942 6.13255L13.6641 6.06949L13.7291 5.94337L13.7725 5.7752L13.8376 5.54397L13.8809 5.31273L13.946 4.70312L14.0761 4.72415Z" fill="black"/>
<path d="M14.0104 4.76675C14.0463 4.76675 14.0754 4.73852 14.0754 4.70369C14.0754 4.66886 14.0463 4.64062 14.0104 4.64062C13.9744 4.64062 13.9453 4.66886 13.9453 4.70369C13.9453 4.73852 13.9744 4.76675 14.0104 4.76675Z" fill="black"/>
<path d="M13.7694 6.1544L13.7477 6.17542L13.7043 6.23848L13.6176 6.32256L13.5092 6.34359L13.4007 6.38563L13.3574 6.40665H13.2923H13.2272L13.1622 6.38563L13.0537 6.36461L12.9453 6.32256L13.0104 6.19644L13.1188 6.23848L13.2055 6.28052H13.2489H13.2706H13.3357H13.379L13.4441 6.23848L13.5525 6.19644L13.5959 6.1544L13.6393 6.11235L13.6826 6.07031L13.7694 6.1544Z" fill="black"/>
<path d="M13.7291 6.15347C13.7651 6.15347 13.7942 6.12524 13.7942 6.09041C13.7942 6.05558 13.7651 6.02734 13.7291 6.02734C13.6932 6.02734 13.6641 6.05558 13.6641 6.09041C13.6641 6.12524 13.6932 6.15347 13.7291 6.15347Z" fill="black"/>
<path d="M12.946 6.32373L12.9026 6.28168L12.8592 6.23964L12.7725 6.15556L12.7291 6.05045L12.6857 5.94535L12.6641 5.88228V5.84024V5.77718L12.6857 5.6931L12.7074 5.60901L12.7725 5.50391L12.8809 5.56697L12.8376 5.65105L12.7942 5.73514V5.77718V5.84024V5.86126L12.8159 5.90331L12.8376 6.00841L12.8809 6.07147L12.946 6.15556L12.9677 6.17658L13.011 6.1976L12.946 6.32373Z" fill="black"/>
<path d="M12.9869 6.30191C13.0229 6.30191 13.052 6.27367 13.052 6.23884C13.052 6.20402 13.0229 6.17578 12.9869 6.17578C12.951 6.17578 12.9219 6.20402 12.9219 6.23884C12.9219 6.27367 12.951 6.30191 12.9869 6.30191Z" fill="black"/>
<path d="M12.8385 5.58706C12.8744 5.58706 12.9036 5.55883 12.9036 5.524C12.9036 5.48917 12.8744 5.46094 12.8385 5.46094C12.8026 5.46094 12.7734 5.48917 12.7734 5.524C12.7734 5.55883 12.8026 5.58706 12.8385 5.58706Z" fill="black"/>
<path d="M16.7821 5.39646L16.8254 5.35441L16.8905 5.29135L16.9555 5.24931L17.0423 5.16522L17.2158 5.0391L17.4326 4.91297L17.823 4.68174L17.9748 4.59766L17.8881 5.18624L17.8447 5.41748L17.8013 5.64871L17.7363 5.85892L17.6929 5.98504L17.6712 6.00606L17.6278 6.04811L17.5411 6.13219L17.4543 6.15321L17.3676 6.19525H17.3025H17.2375H17.1941H17.1507L17.0423 6.17423L16.9339 6.13219L16.9122 6.09015L16.8688 6.04811L16.7821 5.98504L16.7387 5.87994L16.717 5.79585V5.73279L16.6953 5.69075L16.717 5.64871V5.58564L16.7387 5.50156L16.7821 5.39646Z" fill="black"/>
<path d="M16.7422 5.376L16.7856 5.31293L16.8506 5.24987L16.9157 5.18681L17.0024 5.12374L17.1976 4.9766L17.4145 4.85047L17.7831 4.61924L17.9566 4.53516L18.0217 4.64026L17.8482 4.74537L17.4795 4.95558L17.2627 5.0817L17.0675 5.22885L17.0024 5.29191L16.9157 5.35498L16.894 5.39702L16.8289 5.43906L16.7422 5.376Z" fill="black"/>
<path d="M18.0449 4.59915L17.9798 5.20876L17.9147 5.43999L17.8714 5.67122L17.828 5.86041L17.7629 6.00755L17.6328 5.94449L17.6979 5.81837L17.7412 5.6502L17.7846 5.39794L17.8497 5.18773L17.9147 4.57812L18.0449 4.59915Z" fill="black"/>
<path d="M17.9791 4.64175C18.0151 4.64175 18.0442 4.61352 18.0442 4.57869C18.0442 4.54386 18.0151 4.51562 17.9791 4.51562C17.9432 4.51562 17.9141 4.54386 17.9141 4.57869C17.9141 4.61352 17.9432 4.64175 17.9791 4.64175Z" fill="black"/>
<path d="M17.7381 6.00838L17.6948 6.05042L17.6731 6.11348L17.5646 6.17654L17.4779 6.21859L17.3695 6.26063L17.3044 6.28165H17.2394H17.196H17.1309L17.0225 6.23961L16.9141 6.17654L16.9791 6.07144L17.0659 6.11348L17.1526 6.15552H17.2177H17.2394H17.2827H17.3478L17.4128 6.11348L17.4996 6.07144L17.5646 6.00838L17.608 5.98735L17.6297 5.94531L17.7381 6.00838Z" fill="black"/>
<path d="M17.6979 6.02847C17.7338 6.02847 17.7629 6.00024 17.7629 5.96541C17.7629 5.93058 17.7338 5.90234 17.6979 5.90234C17.6619 5.90234 17.6328 5.93058 17.6328 5.96541C17.6328 6.00024 17.6619 6.02847 17.6979 6.02847Z" fill="black"/>
<path d="M16.9147 6.1738L16.8714 6.15278L16.8063 6.11074L16.7412 6.00563L16.6762 5.92155L16.6545 5.81644L16.6328 5.75338V5.69032V5.64827V5.58521L16.6762 5.48011L16.7412 5.375L16.8497 5.43806L16.8063 5.52215L16.7629 5.60623V5.66929V5.69032V5.73236V5.7744L16.8063 5.85848L16.8497 5.94257L16.9147 6.00563L16.9364 6.04767L16.9798 6.06869L16.9147 6.1738Z" fill="black"/>
<path d="M16.9557 6.17691C16.9916 6.17691 17.0207 6.14867 17.0207 6.11384C17.0207 6.07902 16.9916 6.05078 16.9557 6.05078C16.9198 6.05078 16.8906 6.07902 16.8906 6.11384C16.8906 6.14867 16.9198 6.17691 16.9557 6.17691Z" fill="black"/>
<path d="M16.7838 5.46206C16.8197 5.46206 16.8489 5.43383 16.8489 5.399C16.8489 5.36417 16.8197 5.33594 16.7838 5.33594C16.7479 5.33594 16.7188 5.36417 16.7188 5.399C16.7188 5.43383 16.7479 5.46206 16.7838 5.46206Z" fill="black"/>
</g>
<defs>
<clipPath id="clip0_418_844">
<rect width="18" height="21" fill="white" transform="translate(0 0.5)"/>
</clipPath>
</defs>
</svg>
