<svg width="20" height="22" viewBox="0 0 20 22" fill="none" xmlns="http://www.w3.org/2000/svg">
<path d="M17.9327 10.8367L19.5146 13.6926C20.5138 15.4953 19.9207 17.8009 18.1921 18.8412C17.6414 19.1718 17.0183 19.3462 16.3839 19.3462H14.2524V21.5L9.08623 17.7309L14.2524 13.9618V16.1156H16.3829C16.4738 16.1156 16.5627 16.0908 16.6412 16.0434C16.8613 15.911 16.9522 15.6364 16.8696 15.3962L16.8303 15.3079L15.2484 12.452L17.9327 10.8367ZM5.7148 7.91405L6.26241 14.4615L4.47492 13.3846L3.40863 15.3079C3.36316 15.3898 3.3394 15.4824 3.3394 15.5771C3.3394 15.841 3.52228 16.0617 3.76302 16.107L3.85602 16.1156H7.01977V19.3462H3.85602C1.85878 19.3462 0.239709 17.6588 0.239709 15.5771C0.239709 14.9159 0.407093 14.2655 0.724294 13.6926L1.78955 11.7693L0 10.6924L5.71376 7.91405H5.7148ZM11.9276 1.00585C12.4773 1.33645 12.934 1.81243 13.2512 2.38534L14.3154 4.30865L16.106 3.23177L15.5584 9.77921L9.84255 7.00085L11.6321 5.92397L10.5668 4.00066C10.5214 3.91882 10.4563 3.8499 10.3778 3.80359C10.1577 3.67113 9.88388 3.72606 9.7258 3.92205L9.67207 4.00066L8.09122 6.85655L5.40586 5.24123L6.9867 2.38534C7.98584 0.582635 10.198 -0.0354951 11.9276 1.00585Z" fill="black"/>
</svg>
