<svg width="21" height="22" viewBox="0 0 21 22" fill="none" xmlns="http://www.w3.org/2000/svg">
<g clip-path="url(#clip0_418_839)">
<path d="M1.3125 21.5H9.1875L10.5 12.3125H0L1.3125 21.5Z" fill="black"/>
<path d="M18.375 4.4375H15.0938H13.125L3.9375 7.0625H13.125L14.4375 11.063L13.125 21.5H14.4375L17.0625 13.625L19.6875 21.5H21L19.6875 11.1076L18.375 4.4375Z" fill="black"/>
<path d="M15.0938 4.4375C16.1811 4.4375 17.0625 3.55606 17.0625 2.46875C17.0625 1.38144 16.1811 0.5 15.0938 0.5C14.0064 0.5 13.125 1.38144 13.125 2.46875C13.125 3.55606 14.0064 4.4375 15.0938 4.4375Z" fill="black"/>
<path d="M3.9375 8.375L2.625 11H5.25V8.375H3.9375Z" fill="black"/>
</g>
<defs>
<clipPath id="clip0_418_839">
<rect width="21" height="21" fill="white" transform="translate(0 0.5)"/>
</clipPath>
</defs>
</svg>
